<svg xmlns="http://www.w3.org/2000/svg" version="1.1" xmlns:xlink="http://www.w3.org/1999/xlink" xmlns:svgjs="http://svgjs.dev/svgjs" width="1500" height="1226" viewBox="0 0 1500 1226"><g transform="matrix(1,0,0,1,0.43627739217049566,0.49635627530358306)"><svg viewBox="0 0 302 247" data-background-color="#636365" preserveAspectRatio="xMidYMid meet" height="1226" width="1500" xmlns="http://www.w3.org/2000/svg" xmlns:xlink="http://www.w3.org/1999/xlink"><g id="tight-bounds" transform="matrix(1,0,0,1,-0.08783718162365517,-0.09999999999999432)"><svg viewBox="0 0 302.1756743632473 247.2" height="247.2" width="302.1756743632473"><g><svg viewBox="0 0 397.4975999999999 325.17973833287226" height="247.2" width="302.1756743632473"><g><rect width="397.4975999999999" height="9.95982589932387" x="0" y="178.70448912" fill="#ffffff" opacity="1" stroke-width="0" stroke="transparent" fill-opacity="1" class="rect-qz-0" data-fill-palette-color="secondary" rx="1%" id="qz-0" data-palette-color="#ffffff"></rect></g><g transform="matrix(1,0,0,1,0.9887999999999693,214.73715768771098)"><svg viewBox="0 0 395.52 110.44258064516129" height="110.44258064516129" width="395.52"><g id="textblocktransform"><svg viewBox="0 0 395.52 110.44258064516129" height="110.44258064516129" width="395.52" id="textblock"><g><svg viewBox="0 0 395.52 110.44258064516129" height="110.44258064516129" width="395.52"><g transform="matrix(1,0,0,1,0,0)"><svg width="395.52" viewBox="3.15 -35.2 148.78 41.550000000000004" height="110.44258064516129" data-palette-color="#ffffff"><path d="M16.05-32.1Q20.05-32.1 22.35-30 24.65-27.9 24.65-23.8L24.65-23.8Q24.65-20.2 23.1-17.38 21.55-14.55 18.65-12.95 15.75-11.35 11.9-11.35L11.9-11.35 8.2-11.35 8-9.95 6.95 0 3.15 0 4.6-9.65 7.2-32 7.25-32 16.05-32.1ZM14.05-14.4Q17.05-14.8 18.93-17.25 20.8-19.7 20.8-23.3L20.8-23.3Q20.8-26.05 19.48-27.45 18.15-28.85 15.2-29L15.2-29 10.55-28.85 8.6-14.5 14.05-14.4ZM35.8-23.3L36.2-23.3Q38.95-22.85 40.32-21 41.7-19.15 41.7-15.7L41.7-15.7Q41.7-11.1 40.4-7.55 39.1-4 36.62-1.93 34.15 0.15 30.75 0.45L30.75 0.45 30.3 0.4Q27.45-0.15 26.07-2 24.7-3.85 24.7-7.45L24.7-7.45Q24.7-11.95 26.05-15.48 27.4-19 29.92-21.05 32.45-23.1 35.8-23.3L35.8-23.3ZM35.15-20.25Q31.75-20.25 29.95-16.8 28.15-13.35 28.15-7.5L28.15-7.5Q28.15-4.9 28.85-3.73 29.55-2.55 31.2-2.55L31.2-2.55Q34.55-2.55 36.35-6.05 38.15-9.55 38.15-15.45L38.15-15.45Q38.15-18 37.45-19.13 36.75-20.25 35.15-20.25L35.15-20.25ZM59.6-23.1L60.8-23 60.05-18 59.75-17.85 59.3-17.9Q56.9-17.55 54.7-14.63 52.5-11.7 49.6-4.5L49.6-4.5 49.4-0.15 45.6 0.2 48.2-17.95 48.45-22.8 52.1-23.15 50.6-12.15 51-12.15Q52.8-15.8 54.87-18.48 56.95-21.15 59.6-23.1L59.6-23.1ZM69.29-20L66.94-5.55 66.84-4.75Q66.84-4 67.19-3.55 67.54-3.1 68.19-3.1L68.19-3.1Q69.99-3.1 72.54-7.1L72.54-7.1 72.99-7.1 74.04-5.75Q72.29-2.85 70.89-1.5 69.49-0.15 67.74 0.35L67.74 0.35Q65.74 0.35 64.62-0.75 63.49-1.85 63.49-3.85L63.49-3.85 63.59-5.05 65.74-17.95 65.99-20 62.64-20 62.39-20.25 62.64-22.5 66.34-22.5 67.04-28.05 70.49-29.65 70.79-29.35 69.69-22.5 75.79-22.5 76.09-22.1 75.84-20 69.29-20ZM97.34-34.5L97.49-34.15 96.49-31.45 95.94-31.35Q95.04-31.85 93.94-32.15 92.84-32.45 91.94-32.45L91.94-32.45Q89.94-32.45 88.59-31 87.24-29.55 86.89-26.85L86.89-26.85 86.29-22.5 91.69-22.5 91.99-22.1 91.64-20 85.99-20 84.64-9.95 83.09 0.7 82.89 6.05 79.09 6.35 81.29-9.5 82.74-20 79.29-20 79.04-20.25 79.34-22.5 83.09-22.5 83.59-25.9Q84.19-30.5 86.42-32.85 88.64-35.2 92.79-35.2L92.79-35.2 97.34-34.5ZM102.24-23.3L102.64-23.3Q105.39-22.85 106.76-21 108.14-19.15 108.14-15.7L108.14-15.7Q108.14-11.1 106.84-7.55 105.54-4 103.06-1.93 100.59 0.15 97.19 0.45L97.19 0.45 96.74 0.4Q93.89-0.15 92.51-2 91.14-3.85 91.14-7.45L91.14-7.45Q91.14-11.95 92.49-15.48 93.84-19 96.36-21.05 98.89-23.1 102.24-23.3L102.24-23.3ZM101.59-20.25Q98.19-20.25 96.39-16.8 94.59-13.35 94.59-7.5L94.59-7.5Q94.59-4.9 95.29-3.73 95.99-2.55 97.64-2.55L97.64-2.55Q100.99-2.55 102.79-6.05 104.59-9.55 104.59-15.45L104.59-15.45Q104.59-18 103.89-19.13 103.19-20.25 101.59-20.25L101.59-20.25ZM120.89-35.2L116.73-5.45 116.48-0.15 112.73 0.2 116.98-30 117.14-34.85 120.89-35.2ZM130.93-23.15L128.43-5.45 128.23-0.15 124.43 0.2 127.03-17.95 127.23-22.8 130.93-23.15ZM130.08-32.95Q131.03-32.95 131.61-32.4 132.18-31.85 132.18-30.85L132.18-30.85Q132.18-29.8 131.58-29.15 130.98-28.5 129.98-28.5L129.98-28.5Q128.98-28.5 128.41-29.1 127.83-29.7 127.83-30.7L127.83-30.7Q127.83-31.7 128.43-32.33 129.03-32.95 130.08-32.95L130.08-32.95ZM146.03-23.3L146.43-23.3Q149.18-22.85 150.56-21 151.93-19.15 151.93-15.7L151.93-15.7Q151.93-11.1 150.63-7.55 149.33-4 146.86-1.93 144.38 0.15 140.98 0.45L140.98 0.45 140.53 0.4Q137.68-0.15 136.31-2 134.93-3.85 134.93-7.45L134.93-7.45Q134.93-11.95 136.28-15.48 137.63-19 140.16-21.05 142.68-23.1 146.03-23.3L146.03-23.3ZM145.38-20.25Q141.98-20.25 140.18-16.8 138.38-13.35 138.38-7.5L138.38-7.5Q138.38-4.9 139.08-3.73 139.78-2.55 141.43-2.55L141.43-2.55Q144.78-2.55 146.58-6.05 148.38-9.55 148.38-15.45L148.38-15.45Q148.38-18 147.68-19.13 146.98-20.25 145.38-20.25L145.38-20.25Z" opacity="1" transform="matrix(1,0,0,1,0,0)" fill="#ffffff" class="wordmark-text-0" data-fill-palette-color="primary" id="text-0"></path></svg></g></svg></g></svg></g></svg></g><g transform="matrix(1,0,0,1,114.4329767741935,0)"><svg viewBox="0 0 168.6316464516129 152.6316464516129" height="152.6316464516129" width="168.6316464516129"><g><svg xmlns="http://www.w3.org/2000/svg" xmlns:xlink="http://www.w3.org/1999/xlink" version="1.1" x="8" y="0" viewBox="2.5 2.5 20 20" style="enable-background:new 0.5 0.5 24 24;" xml:space="preserve" height="152.6316464516129" width="152.6316464516129" class="icon-icon-0" data-fill-palette-color="accent" id="icon-0"><g fill="#ffffff" data-fill-palette-color="accent"><path d="M21.5 6.5h-5v-2c0-1.103-0.897-2-2-2h-4c-1.103 0-2 0.897-2 2v2h-5c-0.552 0-1 0.448-1 1V10c0 1.93 1.57 3.5 3.5 3.5h13c1.93 0 3.5-1.57 3.5-3.5V7.5C22.5 6.948 22.053 6.5 21.5 6.5zM14.5 6.5h-4v-2h4V6.5z" fill="#ffffff" data-fill-palette-color="accent"></path><path d="M19 14.5h-5.5v2c0 0.553-0.447 1-1 1s-1-0.447-1-1v-2H6c-1.421 0-2.675-0.675-3.5-1.706V21.5c0 0.553 0.448 1 1 1h18c0.553 0 1-0.447 1-1v-8.706C21.675 13.825 20.421 14.5 19 14.5z" fill="#ffffff" data-fill-palette-color="accent"></path></g></svg></g></svg></g><g><rect width="9.05646015243697" height="9.95982589932387" y="141.67182055228903" x="283.06462322580643" fill="#ffffff" data-fill-palette-color="secondary"></rect><rect width="9.05646015243697" height="9.95982589932387" y="141.67182055228903" x="105.37651662175654" fill="#ffffff" data-fill-palette-color="secondary"></rect></g></svg></g><defs></defs></svg><rect width="302.1756743632473" height="247.2" fill="none" stroke="none" visibility="hidden"></rect></g></svg></g></svg>